<?xml version="1.0" encoding="utf-8"?>
<svg viewBox="0 0 2339 1654" xmlns="http://www.w3.org/2000/svg">
  <g transform="matrix(0.1, 0, 0, -0.1, 0, 1654)" fill="#000000" stroke="none">
    <path d="M2605 11444 c-22 -2 -103 -8 -180 -14 -486 -37 -864 -138 -1111 -296 -114 -73 -282 -259 -342 -380 -58 -113 -75 -201 -97 -478 -19 -232 -22 -2216 -4 -2281 17 -62 138 -174 309 -287 123 -81 349 -236 650 -446 326 -227 401 -278 730 -500 179 -120 339 -227 355 -236 17 -9 57 -32 90 -51 87 -50 121 -48 248 18 92 48 248 149 382 247 28 20 176 121 330 225 321 216 394 266 560 385 66 48 270 187 454 311 238 160 341 234 358 260 l24 36 -4 1229 c-3 1216 -3 1230 -24 1314 -46 183 -79 261 -163 385 -117 172 -302 307 -540 393 -211 77 -434 111 -975 153 -136 10 -970 21 -1050 13z m1215 -349 c608 -48 881 -118 1031 -265 104 -102 153 -239 168 -470 10 -162 15 -2088 5 -2167 -6 -52 -10 -57 -63 -99 -31 -24 -111 -84 -179 -132 -68 -48 -149 -106 -181 -129 -425 -303 -1454 -983 -1489 -983 -7 0 -54 31 -106 70 -85 63 -427 290 -623 414 -43 28 -163 106 -268 174 -104 69 -242 159 -305 201 -183 120 -397 268 -502 348 -96 74 -97 74 -103 126 -15 119 -10 2095 6 2248 36 358 184 507 583 589 193 39 506 74 817 90 244 12 979 4 1209 -15z" style="fill: rgb(255, 255, 255);"/>
    <path d="M2762 10268 c-66 -167 -205 -514 -307 -773 -103 -258 -189 -476 -192 -482 -4 -10 77 -13 386 -13 215 0 391 -4 391 -8 0 -4 -9 -35 -19 -68 -29 -87 -172 -536 -226 -706 -26 -82 -48 -148 -50 -148 -2 0 -33 39 -69 86 l-66 87 0 -64 c2 -131 27 -769 31 -774 3 -2 141 132 307 297 166 166 300 304 298 306 -4 3 -198 -25 -223 -33 -7 -3 -13 -3 -13 -1 0 1 49 72 110 157 60 85 191 270 292 412 209 294 327 460 451 634 48 68 90 130 93 138 5 13 -40 15 -359 17 l-364 3 52 90 c29 50 78 135 110 190 32 55 75 129 95 165 21 36 104 180 185 320 81 140 173 300 206 356 32 55 59 103 59 107 0 4 -238 7 -529 7 l-529 0 -120 -302z" style="fill: rgb(255, 242, 0);"/>
    <path d="M7610 10619 c-699 -67 -1270 -524 -1474 -1179 -54 -175 -69 -286 -70 -500 0 -304 45 -510 165 -752 81 -165 166 -285 294 -414 153 -154 253 -228 431 -317 479 -240 1127 -264 1648 -61 189 74 514 259 604 344 l22 21 -2 727 -3 727 -720 3 c-396 1 -730 0 -742 -3 l-23 -5 0 -325 0 -325 320 0 320 0 0 -200 0 -199 -42 -25 c-192 -110 -525 -138 -758 -65 -297 93 -503 320 -577 637 -23 100 -24 335 -1 437 72 322 308 580 603 659 198 54 490 19 689 -80 88 -45 253 -152 276 -180 7 -8 16 -14 20 -14 5 0 46 46 93 103 47 56 94 112 105 125 11 13 35 42 54 64 18 23 88 107 155 187 l122 146 -37 33 c-67 59 -285 199 -392 250 -58 28 -149 67 -203 87 -234 84 -587 122 -877 94z" style="fill: rgb(255, 255, 255);"/>
    <path d="M14510 10619 c-298 -31 -583 -134 -828 -301 -96 -65 -109 -75 -226 -188 -237 -229 -391 -509 -468 -851 -21 -94 -23 -128 -22 -344 0 -207 3 -253 21 -335 75 -333 219 -597 452 -831 262 -261 559 -415 941 -486 148 -27 507 -25 656 5 275 55 500 151 723 310 117 83 287 250 365 361 167 234 275 508 307 775 17 142 6 436 -20 555 -66 304 -210 579 -422 805 -361 385 -917 582 -1479 525z m395 -823 c125 -34 255 -108 353 -200 189 -178 284 -428 269 -710 -21 -407 -276 -723 -646 -802 -85 -18 -267 -18 -353 1 -184 39 -358 154 -486 322 -50 65 -108 190 -138 299 -23 85 -27 118 -27 234 0 150 16 249 59 357 100 252 288 425 544 497 82 23 103 25 240 21 74 -2 149 -10 185 -19z" style="fill: rgb(255, 255, 255);"/>
    <path d="M17875 10610 c-313 -36 -577 -150 -766 -331 -235 -226 -332 -561 -265 -913 36 -188 147 -353 325 -485 64 -48 196 -117 301 -159 87 -35 337 -109 495 -147 249 -60 283 -69 355 -93 205 -68 270 -129 270 -251 0 -52 -4 -65 -33 -103 -69 -90 -190 -124 -407 -115 -324 15 -644 132 -912 334 -31 24 -61 43 -66 43 -6 0 -41 -37 -78 -82 -38 -46 -73 -88 -79 -94 -5 -6 -26 -30 -45 -54 -19 -24 -64 -78 -100 -120 -111 -129 -190 -228 -189 -237 0 -4 28 -31 62 -59 275 -227 651 -384 1077 -451 165 -25 551 -25 705 1 126 21 315 81 419 133 265 132 449 356 522 633 24 93 27 123 27 260 0 127 -4 170 -22 240 -66 255 -222 428 -515 568 -171 83 -398 153 -728 227 -210 47 -378 109 -442 164 -33 29 -56 88 -56 143 0 87 50 150 150 189 47 19 74 22 185 22 263 -1 538 -87 799 -252 55 -34 100 -60 101 -59 1 2 42 59 90 128 49 69 146 207 217 306 70 100 128 186 128 192 0 21 -204 153 -335 217 -206 102 -379 154 -630 191 -123 18 -451 26 -560 14z" style="fill: rgb(255, 255, 255);"/>
    <path d="M20925 10614 c-476 -53 -821 -260 -980 -587 -142 -295 -134 -666 18 -910 61 -97 152 -186 267 -261 175 -115 317 -167 769 -282 522 -132 611 -180 611 -333 0 -166 -150 -242 -445 -228 -320 16 -620 125 -892 324 -40 29 -77 53 -82 53 -5 0 -18 -11 -29 -24 -10 -14 -39 -49 -64 -78 -175 -203 -398 -475 -397 -483 0 -5 35 -38 77 -71 380 -302 879 -464 1427 -464 507 1 899 160 1120 454 88 118 135 220 171 371 25 106 25 348 1 448 -101 410 -423 624 -1207 802 -199 45 -374 104 -447 151 -134 86 -123 269 20 338 76 38 178 49 320 36 235 -22 477 -107 701 -249 55 -34 100 -60 101 -59 1 2 29 41 61 87 32 46 74 104 92 130 18 25 55 78 82 116 55 78 82 116 158 222 l52 73 -54 39 c-103 76 -198 133 -319 191 -278 132 -530 187 -892 194 -110 2 -218 2 -240 0z" style="fill: rgb(255, 255, 255);"/>
    <path d="M9740 8940 l0 -1620 443 2 442 3 5 490 5 490 190 2 c105 2 195 0 201 -5 5 -4 156 -226 334 -494 l323 -488 508 0 c279 0 510 3 512 8 2 4 -126 196 -284 427 -397 577 -469 683 -469 692 0 5 40 29 88 55 401 213 590 550 569 1013 -14 296 -103 512 -286 696 -163 163 -377 267 -671 325 -75 15 -191 18 -997 21 l-913 4 0 -1621z m1679 827 c91 -27 158 -66 205 -118 62 -69 81 -129 81 -255 -1 -93 -3 -105 -33 -167 -36 -73 -96 -133 -168 -166 -96 -46 -148 -51 -521 -51 l-353 0 0 391 0 391 368 -5 c299 -3 377 -7 421 -20z" style="fill: rgb(255, 255, 255);"/>
    <path d="M19311 6620 c-8 -6 -42 -85 -176 -405 -53 -126 -114 -270 -135 -320 -21 -49 -63 -148 -94 -220 -30 -71 -95 -226 -145 -344 -50 -117 -91 -217 -91 -222 0 -5 95 -9 214 -9 l214 0 30 73 c17 39 41 99 54 132 l23 60 299 0 298 0 52 -130 52 -130 222 -3 c122 -1 222 -1 222 2 0 5 -27 73 -49 121 -10 22 -46 108 -80 190 -35 83 -69 164 -76 180 -7 17 -46 107 -85 200 -39 94 -102 242 -140 330 -37 88 -98 232 -135 320 -37 88 -70 163 -74 168 -8 8 -389 15 -400 7z m239 -600 c18 -47 53 -134 77 -195 23 -60 43 -115 43 -122 0 -10 -36 -13 -163 -13 -90 0 -166 2 -169 5 -4 5 106 296 153 404 13 32 20 22 59 -79z" style="fill: rgb(255, 255, 255);"/>
    <path d="M15813 6605 c-2 -6 -2 -87 -1 -180 l3 -170 228 -3 227 -2 0 -575 0 -575 210 0 210 0 0 575 0 575 225 0 225 0 0 183 0 182 -661 0 c-448 0 -663 -3 -666 -10z" style="fill: rgb(255, 255, 255);"/>
    <path d="M17330 5859 l0 -759 615 0 615 0 0 175 0 175 -407 2 -408 3 0 120 0 120 365 3 365 2 0 158 c0 93 -4 160 -10 164 -5 5 -170 8 -365 7 l-355 0 0 113 0 113 403 3 402 2 0 175 0 175 -592 1 c-326 0 -601 2 -610 4 -17 3 -18 -38 -18 -756z" style="fill: rgb(255, 255, 255);"/>
    <path d="M20514 6611 c-2 -2 -4 -343 -4 -758 l0 -753 205 0 205 0 2 432 3 431 190 -291 c105 -161 192 -292 195 -292 5 0 108 155 293 443 49 75 93 137 98 137 5 0 9 -182 9 -430 l0 -430 205 0 205 0 0 753 c0 415 -2 756 -4 758 -2 2 -102 2 -222 -1 l-218 -5 -47 -75 c-25 -41 -106 -171 -179 -289 -129 -207 -133 -213 -149 -192 -9 11 -90 142 -181 290 l-165 270 -218 3 c-120 2 -221 1 -223 -1z" style="fill: rgb(255, 255, 255);"/>
  </g>
</svg>